<?xml version="1.0" encoding="iso-8859-1"?>
<!-- Generator: Adobe Illustrator 19.1.0, SVG Export Plug-In . SVG Version: 6.00 Build 0)  -->
<svg version="1.1" id="Capa_1" xmlns="http://www.w3.org/2000/svg" xmlns:xlink="http://www.w3.org/1999/xlink" x="0px" y="0px"
	 viewBox="0 0 345.383 345.383" style="enable-background:new 0 0 345.383 345.383;" xml:space="preserve">
<g>
	<path d="M345.217,170.479l-33.908-97.717h26.574v-15h-31.779l-7.661-22.076l-7.731,22.076h-80.64
		c-3.008-15.017-14.864-26.872-29.88-29.88V2.22h-15v25.662c-15.016,3.008-26.872,14.864-29.88,29.88h-80.64l-7.731-22.076
		L39.28,57.762H7.5v15h26.574L0.165,170.479H0v0.477v3.557v3.467c0,25.9,21.072,46.973,46.972,46.973s46.972-21.072,46.972-46.973
		v-2.426v-5.074v-0.576l-34.02-97.141h75.387c3.008,15.017,14.864,26.872,29.88,29.88v171.689L55.349,343.163h234.686
		l-109.843-68.832V102.642c15.016-3.008,26.872-14.864,29.88-29.88h75.387l-34.02,97.141v0.576v5.074v2.426
		c0,25.9,21.072,46.973,46.972,46.973s46.972-21.072,46.972-46.973v-3.467v-3.557v-0.477h-0.166V170.479z M46.972,209.951
		c-15.047,0-27.7-10.45-31.084-24.473h62.168C74.672,199.501,62.019,209.951,46.972,209.951z M16.043,170.479l30.962-89.225
		l31.248,89.225H16.043z M107.534,328.163l65.157-40.831l65.157,40.831H107.534z M172.691,88.387
		c-12.751,0-23.125-10.374-23.125-23.125s10.374-23.125,23.125-23.125s23.125,10.374,23.125,23.125S185.442,88.387,172.691,88.387z
		 M298.378,81.254l30.962,89.225h-62.21L298.378,81.254z M298.411,209.951c-15.047,0-27.7-10.45-31.084-24.473h62.168
		C326.111,199.501,313.458,209.951,298.411,209.951z"/>
	<g>
	</g>
	<g>
	</g>
	<g>
	</g>
	<g>
	</g>
	<g>
	</g>
	<g>
	</g>
	<g>
	</g>
	<g>
	</g>
	<g>
	</g>
	<g>
	</g>
	<g>
	</g>
	<g>
	</g>
	<g>
	</g>
	<g>
	</g>
	<g>
	</g>
</g>
<g>
</g>
<g>
</g>
<g>
</g>
<g>
</g>
<g>
</g>
<g>
</g>
<g>
</g>
<g>
</g>
<g>
</g>
<g>
</g>
<g>
</g>
<g>
</g>
<g>
</g>
<g>
</g>
<g>
</g>
</svg>
